HIERARCHY
ROOT root
{
	OFFSET 0.000000 0.000000 0.000000
	CHANNELS 6 Xposition Yposition Zposition Zrotation Yrotation Xrotation
	JOINT lhip
	{
		OFFSET 0.058581 -0.082280 -0.017664
		CHANNELS 3 Zrotation Yrotation Xrotation
		JOINT lknee
		{
			OFFSET 0.043451 -0.386469 0.008037
			CHANNELS 3 Zrotation Yrotation Xrotation
			JOINT lankle
			{
				OFFSET -0.014790 -0.426874 -0.037428
				CHANNELS 3 Zrotation Yrotation Xrotation
				JOINT ltoe
				{
					OFFSET 0.041054 -0.060286 0.122042
					CHANNELS 3 Zrotation Yrotation Xrotation
					End Site
					{
						OFFSET 0.000000 0.000000 0.000000
					}
				}
			}
		}
	}
	JOINT rhip
	{
		OFFSET -0.060310 -0.090513 -0.013543
		CHANNELS 3 Zrotation Yrotation Xrotation
		JOINT rknee
		{
			OFFSET -0.043257 -0.383688 -0.004843
			CHANNELS 3 Zrotation Yrotation Xrotation
			JOINT rankle
			{
				OFFSET 0.019056 -0.420046 -0.034562
				CHANNELS 3 Zrotation Yrotation Xrotation
				JOINT rtoe
				{
					OFFSET -0.034840 -0.062106 0.130323
					CHANNELS 3 Zrotation Yrotation Xrotation
					End Site
					{
						OFFSET 0.000000 0.000000 0.000000
					}
				}
			}
		}
	}
	JOINT lowerback
	{
		OFFSET 0.004439 0.124404 -0.038385
		CHANNELS 3 Zrotation Yrotation Xrotation
		JOINT upperback
		{
			OFFSET 0.004488 0.137956 0.026820
			CHANNELS 3 Zrotation Yrotation Xrotation
			JOINT chest
			{
				OFFSET -0.002265 0.056032 0.002855
				CHANNELS 3 Zrotation Yrotation Xrotation
				JOINT lowerneck
				{
					OFFSET -0.013390 0.211636 -0.033468
					CHANNELS 3 Zrotation Yrotation Xrotation
					JOINT upperneck
					{
						OFFSET 0.010113 0.088937 0.050410
						CHANNELS 3 Zrotation Yrotation Xrotation
						End Site
						{
							OFFSET 0.000000 0.000000 0.000000
						}
					}
				}
				JOINT lclavicle
				{
					OFFSET 0.071702 0.114000 -0.018898
					CHANNELS 3 Zrotation Yrotation Xrotation
					JOINT lshoulder
					{
						OFFSET 0.122921 0.045205 -0.019046
						CHANNELS 3 Zrotation Yrotation Xrotation
						JOINT lelbow
						{
							OFFSET 0.255332 -0.015649 -0.022946
							CHANNELS 3 Zrotation Yrotation Xrotation
							JOINT lwrist
							{
								OFFSET 0.265709 0.012698 -0.007375
								CHANNELS 3 Zrotation Yrotation Xrotation
								End Site
								{
									OFFSET 0.000000 0.000000 0.000000
								}
							}
						}
					}
				}
				JOINT rclavicle
				{
					OFFSET -0.082954 0.112472 -0.023707
					CHANNELS 3 Zrotation Yrotation Xrotation
					JOINT rshoulder
					{
						OFFSET -0.113228 0.046853 -0.008472
						CHANNELS 3 Zrotation Yrotation Xrotation
						JOINT relbow
						{
							OFFSET -0.260127 -0.014369 -0.031269
							CHANNELS 3 Zrotation Yrotation Xrotation
							JOINT rwrist
							{
								OFFSET -0.269108 0.006794 -0.006027
								CHANNELS 3 Zrotation Yrotation Xrotation
								End Site
								{
									OFFSET 0.000000 0.000000 0.000000
								}
							}
						}
					}
				}
			}
		}
	}
}
MOTION
Frames: 5
Frame Time: 0.033333
-2.666982 0.106920 0.911751 96.891259 0.913263 101.014434 -1.839452 -1.937115 8.692901 -9.187242 -10.910159 46.279513 0.869661 15.172295 -1.075903 0.000000 -0.000000 0.000000 -4.888248 -1.395802 -56.701843 3.286342 -20.779826 46.428403 9.963204 -6.694925 -11.902474 0.000000 -0.000000 0.000000 2.097093 -11.388718 21.755848 0.767170 1.551626 -7.328725 0.465467 -2.793095 1.251649 -3.444587 3.266648 -19.224391 0.289090 6.020534 -7.264309 -25.602399 5.510036 -3.775201 -55.142954 -10.160274 21.267075 -155.350277 -79.964381 174.415555 15.763871 -12.136118 -24.219137 21.811566 -9.898302 1.499238 52.401023 -15.939512 11.915399 -19.409384 66.147922 -11.122087 -15.669546 12.078105 -9.688281 
-2.541284 0.109746 0.904667 94.385123 0.421982 99.782246 -1.347701 -0.902053 0.065924 -8.915389 -4.258749 63.148629 3.682294 14.364434 -5.586080 0.000000 -0.000000 0.000000 -1.123505 -0.131595 -50.729918 2.747848 -18.539024 50.775156 -1.701491 -10.932256 -15.618182 0.000000 -0.000000 0.000000 1.328979 -7.817224 23.130346 1.089894 1.800772 -7.648132 0.207020 -2.507197 1.398472 -3.306226 3.387703 -20.540494 -0.611203 4.540701 -5.423121 -27.866274 4.949002 -3.539402 -51.912240 -6.625046 17.730704 -44.880531 -86.402471 65.122958 16.693023 -13.083779 -16.612367 26.093089 -6.817301 -0.160677 52.066240 -11.686277 11.635902 -24.382333 63.289271 -14.612128 -16.111141 11.343790 -11.093860 
-2.420357 0.112276 0.891833 91.586988 0.377409 98.555592 0.950300 -2.188692 -10.854551 -6.809085 2.919983 76.876880 5.575723 16.344931 -13.183583 0.000000 -0.000000 0.000000 1.566104 2.921960 -44.257712 1.043300 -14.494954 57.040119 -5.228841 -13.422413 -23.375265 0.000000 -0.000000 0.000000 0.128893 -4.370358 24.923766 1.460897 2.689161 -7.704144 0.234957 -1.284076 1.251318 -2.640970 3.608181 -22.478686 -1.398483 2.346478 -3.022779 -28.852932 3.778414 -2.993761 -50.304544 -3.318188 15.194049 3.929189 -75.506166 12.846213 17.957718 -11.054462 -17.635655 29.633394 -2.397117 -1.538479 50.699459 -7.096850 13.475889 -29.072147 60.331735 -19.452477 -18.101938 10.987785 -12.349800 
-2.268688 0.117475 0.880817 87.277767 0.730798 97.917578 6.981451 -3.891339 -27.664050 -3.609968 10.819075 85.666769 5.615159 17.043554 -20.671156 0.000000 -0.000000 0.000000 3.718682 6.733851 -32.262220 1.783066 -10.369419 57.930750 -4.820548 -16.141565 -33.386906 0.000000 -0.000000 0.000000 -0.529736 -0.124800 25.585048 1.497262 3.080154 -6.029105 -0.094912 0.501297 -0.476334 -1.339918 4.501645 -24.344657 -2.499811 0.744799 -1.909005 -29.420869 3.992124 -1.406685 -46.355883 3.017739 11.187535 3.752789 -67.641130 13.763857 20.091640 -13.752586 -12.649622 30.222397 3.481398 0.774095 49.584381 1.452159 14.592264 -33.463515 62.018868 -20.171353 -21.085467 12.522672 -12.157146 
-2.170281 0.121769 0.878291 85.152205 -0.259507 96.794586 8.375067 -2.515954 -36.106200 -2.508678 12.616201 84.768061 4.151187 15.898795 -24.415270 0.000000 -0.000000 0.000000 4.662188 2.300389 -21.749305 0.440035 -5.622679 54.983453 -3.884081 -12.766522 -38.234345 0.000000 -0.000000 0.000000 -0.940453 3.568397 26.397044 1.428815 1.853437 -6.815672 -0.831913 1.728480 -0.242746 -0.254883 6.370141 -23.549002 -3.668359 -2.040676 -3.121225 -27.609520 5.428617 -0.181396 -43.136420 8.099686 11.172957 -8.682397 -70.577975 26.039466 18.512370 -12.550286 -13.684104 27.703208 4.000995 -0.729465 50.837065 4.005506 15.919803 -39.439478 69.545274 -23.822766 -17.714960 12.260799 -12.798887 
